<svg xmlns="http://www.w3.org/2000/svg" version="1.1" xmlns:xlink="http://www.w3.org/1999/xlink" xmlns:svgjs="http://svgjs.dev/svgjs" width="1000" height="623" viewBox="0 0 1000 623"><g transform="matrix(1,0,0,1,-0.606046267548777,0.2522267206477409)"><svg viewBox="0 0 396 247" data-background-color="#ffffff" preserveAspectRatio="xMidYMid meet" height="623" width="1000" xmlns="http://www.w3.org/2000/svg" xmlns:xlink="http://www.w3.org/1999/xlink"><g id="tight-bounds" transform="matrix(1,0,0,1,0.23999432194932524,-0.09999999999999432)"><svg viewBox="0 0 395.52 247.2" height="247.2" width="395.52"><g><svg></svg></g><g><svg viewBox="0 0 395.52 247.2" height="247.2" width="395.52"><g><g><path xmlns="http://www.w3.org/2000/svg" d="M197.588 247.2c-22.431 0-42.047-3.433-58.847-10.3-10.143-4.134-18.999-9.538-26.57-16.211h170.845c-7.56 6.673-16.397 12.077-26.512 16.211-16.846 6.867-36.485 10.3-58.916 10.3zM138.535 10.987c16.938-7.324 36.622-10.987 59.053-10.987 22.431 0 42.116 3.662 59.054 10.987 9.535 4.123 17.93 9.298 25.187 15.524l-168.416 0c7.214-6.226 15.588-11.401 25.122-15.524z" fill="#00eeff" fill-rule="nonzero" stroke="none" stroke-width="1" stroke-linecap="butt" stroke-linejoin="miter" stroke-miterlimit="10" stroke-dasharray="" stroke-dashoffset="0" font-family="none" font-weight="none" font-size="none" text-anchor="none" style="mix-blend-mode: normal" data-fill-palette-color="tertiary"></path></g></g><g transform="matrix(1,0,0,1,0,57.649467345993514)"><svg viewBox="0 0 395.52 131.90106530801296" height="131.90106530801296" width="395.52"><g><svg viewBox="0 0 395.52 131.90106530801296" height="131.90106530801296" width="395.52"><g><svg viewBox="0 0 395.52 131.90106530801296" height="131.90106530801296" width="395.52"><g><svg viewBox="0 0 395.52 131.90106530801296" height="131.90106530801296" width="395.52" id="textblock"><g><svg viewBox="0 0 395.52 131.90106530801296" height="131.90106530801296" width="395.52"><g transform="matrix(1,0,0,1,0,0)"><svg width="395.52" viewBox="1.7999999523162842 -35.5 107.94999694824219 36" height="131.90106530801296" data-palette-color="#00eeff"><path d="M18.55 0.5L18.55 0.5Q13.65 0.5 9.98-1 6.3-2.5 4.17-5.53 2.05-8.55 1.85-13L1.85-13Q1.8-15.05 1.8-17.35 1.8-19.65 1.85-21.8L1.85-21.8Q2.05-26.2 4.15-29.25 6.25-32.3 9.95-33.9 13.65-35.5 18.55-35.5L18.55-35.5Q23.45-35.5 27.15-33.9 30.85-32.3 32.98-29.25 35.1-26.2 35.25-21.8L35.25-21.8Q35.35-19.65 35.35-17.35 35.35-15.05 35.25-13L35.25-13Q35.05-8.55 32.93-5.53 30.8-2.5 27.13-1 23.45 0.5 18.55 0.5ZM18.55-9.25L18.55-9.25Q20.2-9.25 21.2-10.23 22.2-11.2 22.25-13.3L22.25-13.3Q22.35-15.45 22.35-17.55 22.35-19.65 22.25-21.7L22.25-21.7Q22.2-23.1 21.73-24 21.25-24.9 20.45-25.33 19.65-25.75 18.55-25.75L18.55-25.75Q17.5-25.75 16.68-25.33 15.85-24.9 15.38-24 14.9-23.1 14.85-21.7L14.85-21.7Q14.8-19.65 14.8-17.55 14.8-15.45 14.85-13.3L14.85-13.3Q14.95-11.2 15.93-10.23 16.9-9.25 18.55-9.25ZM55.85 0L41.2 0Q40.65 0 40.25-0.4 39.85-0.8 39.85-1.35L39.85-1.35 39.85-33.65Q39.85-34.2 40.25-34.6 40.65-35 41.2-35L41.2-35 55.6-35Q60.3-35 64-33.43 67.7-31.85 69.92-28.8 72.15-25.75 72.3-21.25L72.3-21.25Q72.4-19.1 72.4-17.48 72.4-15.85 72.3-13.8L72.3-13.8Q72.1-9.1 70-6.03 67.9-2.95 64.27-1.48 60.65 0 55.85 0L55.85 0ZM52.35-25.25L52.35-9.75 55.6-9.75Q56.7-9.75 57.57-10.18 58.45-10.6 59-11.5 59.55-12.4 59.6-13.8L59.6-13.8Q59.7-15.25 59.72-16.4 59.75-17.55 59.72-18.73 59.7-19.9 59.6-21.25L59.6-21.25Q59.5-23.35 58.27-24.3 57.05-25.25 55.35-25.25L55.35-25.25 52.35-25.25ZM87.75 0L78.19 0Q77.64 0 77.25-0.4 76.84-0.8 76.84-1.35L76.84-1.35 76.84-33.65Q76.84-34.2 77.25-34.6 77.64-35 78.19-35L78.19-35 87.75-35Q88.3-35 88.69-34.6 89.09-34.2 89.09-33.65L89.09-33.65 89.09-23.75 94.75-33.9Q95-34.3 95.47-34.65 95.94-35 96.75-35L96.75-35 107.8-35Q108.25-35 108.57-34.68 108.9-34.35 108.9-33.9L108.9-33.9Q108.9-33.6 108.75-33.35L108.75-33.35 99.75-18.25 109.59-1.65Q109.75-1.45 109.75-1.1L109.75-1.1Q109.75-0.65 109.42-0.33 109.09 0 108.65 0L108.65 0 97.25 0Q96.25 0 95.77-0.48 95.3-0.95 95.19-1.15L95.19-1.15 89.09-12.05 89.09-1.35Q89.09-0.8 88.69-0.4 88.3 0 87.75 0L87.75 0Z" opacity="1" transform="matrix(1,0,0,1,0,0)" fill="#00eeff" class="undefined-text-0" data-fill-palette-color="primary" id="text-0"></path></svg></g></svg></g></svg></g></svg></g></svg></g></svg></g></svg></g><defs></defs></svg><rect width="395.52" height="247.2" fill="none" stroke="none" visibility="hidden"></rect></g></svg></g></svg>